<svg xmlns="http://www.w3.org/2000/svg" viewBox="0 0 400 440" width="400" height="440">
  <defs>
    <linearGradient id="mg1" x1="0%" y1="0%" x2="100%" y2="100%">
      <stop offset="0%" stop-color="#D4AF37"/>
      <stop offset="100%" stop-color="#B89530"/>
    </linearGradient>
  </defs>
  <!-- Shield path -->
  <path d="M200,16 L370,80 L370,240 C370,330 290,390 200,420 C110,390 30,330 30,240 L30,80 Z" fill="#0A1628" stroke="url(#mg1)" stroke-width="4"/>
  <!-- Red top bar -->
  <path d="M200,16 L370,80 L370,92 L200,30 L30,92 L30,80 Z" fill="#BF0A30"/>
  <!-- Star above letters -->
  <polygon points="200,110 204,122 217,122 207,129 210,141 200,134 190,141 193,129 183,122 196,122" fill="url(#mg1)"/>
  <!-- GE text - serif, centered -->
  <text x="200" y="310" text-anchor="middle" font-family="Georgia,'Times New Roman',serif" font-weight="700" font-size="160" fill="url(#mg1)" letter-spacing="2">GE</text>
  <!-- Small red star bottom -->
  <polygon points="200,368 203,375 210,375 204,379 207,386 200,382 193,386 196,379 190,375 197,375" fill="#BF0A30"/>
</svg>
