<svg xmlns="http://www.w3.org/2000/svg" viewBox="0 0 400 400" width="400" height="400">
  <defs>
    <linearGradient id="mg3" x1="0%" y1="0%" x2="100%" y2="100%">
      <stop offset="0%" stop-color="#D4AF37"/>
      <stop offset="100%" stop-color="#B89530"/>
    </linearGradient>
  </defs>
  <!-- Octagon -->
  <polygon points="120,20 280,20 380,120 380,280 280,380 120,380 20,280 20,120" fill="#0A1628" stroke="url(#mg3)" stroke-width="4"/>
  <!-- Red top edge -->
  <polygon points="120,20 280,20 380,120 380,108 280,10 120,10 20,108 20,120" fill="#BF0A30"/>
  <!-- Star top center -->
  <polygon points="200,52 203,61 213,61 205,67 208,76 200,70 192,76 195,67 187,61 197,61" fill="#FFFFFF"/>
  <!-- GE centered -->
  <text x="200" y="258" text-anchor="middle" font-family="Georgia,'Times New Roman',serif" font-weight="700" font-size="155" fill="url(#mg3)" letter-spacing="2">GE</text>
</svg>
