<svg xmlns="http://www.w3.org/2000/svg" viewBox="0 0 512 512" width="512" height="512">
  <defs>
    <linearGradient id="g6" x1="0%" y1="0%" x2="100%" y2="100%">
      <stop offset="0%" stop-color="#D4AF37"/>
      <stop offset="100%" stop-color="#A8862A"/>
    </linearGradient>
  </defs>
  <!-- Diamond/rotated square -->
  <g transform="translate(256,256) rotate(45)">
    <rect x="-175" y="-175" width="350" height="350" rx="16" fill="#0A1628" stroke="url(#g6)" stroke-width="5"/>
    <rect x="-160" y="-160" width="320" height="320" rx="12" fill="none" stroke="#C9A84C" stroke-width="1" opacity="0.2"/>
    <!-- Red corner accents -->
    <rect x="-175" y="-175" width="350" height="10" fill="#BF0A30" rx="5"/>
  </g>
  <!-- GE letters (not rotated) -->
  <text x="256" y="295" text-anchor="middle" font-family="'Arial Black',Impact,sans-serif" font-weight="900" font-size="190" fill="url(#g6)" letter-spacing="-5">GE</text>
  <!-- Star at top of diamond -->
  <g transform="translate(256, 18)">
    <polygon points="0,-14 3.2,-4.5 13.3,-4.5 5.4,1.7 8.3,11.2 0,5.8 -8.3,11.2 -5.4,1.7 -13.3,-4.5 -3.2,-4.5" fill="url(#g6)"/>
  </g>
  <!-- Star at bottom -->
  <g transform="translate(256, 494)">
    <polygon points="0,-14 3.2,-4.5 13.3,-4.5 5.4,1.7 8.3,11.2 0,5.8 -8.3,11.2 -5.4,1.7 -13.3,-4.5 -3.2,-4.5" fill="#BF0A30"/>
  </g>
</svg>
