<svg xmlns="http://www.w3.org/2000/svg" viewBox="0 0 600 140" width="600" height="140">
  <defs>
    <linearGradient id="gld3" x1="0%" y1="0%" x2="100%" y2="100%">
      <stop offset="0%" stop-color="#D4AF37"/>
      <stop offset="100%" stop-color="#B8952F"/>
    </linearGradient>
  </defs>
  <!-- Top red line -->
  <rect x="0" y="0" width="600" height="4" fill="#BF0A30"/>
  <!-- GUNTHER - large, tight -->
  <text x="300" y="60" text-anchor="middle" font-family="'Arial Black', Impact, sans-serif" font-weight="900" font-size="58" fill="#FFFFFF" letter-spacing="14">GUNTHER</text>
  <!-- EAGLEMAN - slightly wider tracking -->
  <text x="300" y="108" text-anchor="middle" font-family="'Arial Black', Impact, sans-serif" font-weight="900" font-size="48" fill="url(#gld3)" letter-spacing="18">EAGLEMAN</text>
  <!-- Three stars between -->
  <g fill="#BF0A30" transform="translate(300, 76)">
    <polygon points="-40,-6 -37.5,-1 -33,-1 -36.5,2 -35,7 -40,4 -45,7 -43.5,2 -47,-1 -42.5,-1"/>
    <polygon points="0,-6 2.5,-1 7,-1 3.5,2 5,7 0,4 -5,7 -3.5,2 -7,-1 -2.5,-1"/>
    <polygon points="40,-6 42.5,-1 47,-1 43.5,2 45,7 40,4 35,7 36.5,2 33,-1 37.5,-1"/>
  </g>
  <!-- Bottom red line -->
  <rect x="0" y="136" width="600" height="4" fill="#BF0A30"/>
</svg>
