<svg xmlns="http://www.w3.org/2000/svg" viewBox="0 0 480 120" width="480" height="120">
  <defs>
    <linearGradient id="gld3" x1="0%" y1="0%" x2="100%" y2="100%">
      <stop offset="0%" stop-color="#D4AF37"/>
      <stop offset="100%" stop-color="#B89530"/>
    </linearGradient>
  </defs>
  <!-- Top red line -->
  <rect x="40" y="6" width="400" height="3" fill="#BF0A30"/>
  <!-- GUNTHER centered -->
  <text x="240" y="50" text-anchor="middle" font-family="'Trebuchet MS',Arial,sans-serif" font-weight="900" font-size="38" fill="#FFFFFF" letter-spacing="10">GUNTHER</text>
  <!-- Three small stars - centered between the two text lines -->
  <g fill="#BF0A30">
    <polygon points="210,65 212,70 217,70 213,73 215,78 210,75 205,78 207,73 203,70 208,70"/>
    <polygon points="240,65 242,70 247,70 243,73 245,78 240,75 235,78 237,73 233,70 238,70"/>
    <polygon points="270,65 272,70 277,70 273,73 275,78 270,75 265,78 267,73 263,70 268,70"/>
  </g>
  <!-- EAGLEMAN centered -->
  <text x="240" y="106" text-anchor="middle" font-family="'Trebuchet MS',Arial,sans-serif" font-weight="900" font-size="38" fill="url(#gld3)" letter-spacing="10">EAGLEMAN</text>
  <!-- Bottom red line -->
  <rect x="40" y="112" width="400" height="3" fill="#BF0A30"/>
</svg>
