<svg xmlns="http://www.w3.org/2000/svg" viewBox="0 0 480 120" width="480" height="120">
  <defs>
    <linearGradient id="gld3" x1="0%" y1="0%" x2="100%" y2="100%">
      <stop offset="0%" stop-color="#D4AF37"/>
      <stop offset="100%" stop-color="#B89530"/>
    </linearGradient>
  </defs>
  <!-- Top red line -->
  <rect x="40" y="6" width="400" height="3" fill="#BF0A30"/>
  <!-- GUNTHER centered -->
  <text x="240" y="52" text-anchor="middle" font-family="'Trebuchet MS',Arial,sans-serif" font-weight="900" font-size="38" fill="#FFFFFF" letter-spacing="10">GUNTHER</text>
  <!-- Three small stars -->
  <g fill="#BF0A30">
    <polygon points="200,67 202,72 207,72 203,75 205,80 200,77 195,80 197,75 193,72 198,72"/>
    <polygon points="240,67 242,72 247,72 243,75 245,80 240,77 235,80 237,75 233,72 238,72"/>
    <polygon points="280,67 282,72 287,72 283,75 285,80 280,77 275,80 277,75 273,72 278,72"/>
  </g>
  <!-- EAGLEMAN centered -->
  <text x="240" y="104" text-anchor="middle" font-family="'Trebuchet MS',Arial,sans-serif" font-weight="900" font-size="38" fill="url(#gld3)" letter-spacing="10">EAGLEMAN</text>
  <!-- Bottom red line -->
  <rect x="40" y="112" width="400" height="3" fill="#BF0A30"/>
</svg>
