<svg xmlns="http://www.w3.org/2000/svg" viewBox="0 0 600 120" width="600" height="120">
  <defs>
    <linearGradient id="gld5" x1="0%" y1="0%" x2="100%" y2="100%">
      <stop offset="0%" stop-color="#D4AF37"/>
      <stop offset="100%" stop-color="#B8952F"/>
    </linearGradient>
  </defs>
  <!-- Eagle wing left -->
  <path d="M10,60 Q30,20 60,35 Q40,45 35,60 Q40,75 60,85 Q30,100 10,60Z" fill="#C9A84C" opacity="0.3"/>
  <!-- Eagle wing right mirrored -->
  <path d="M590,60 Q570,20 540,35 Q560,45 565,60 Q560,75 540,85 Q570,100 590,60Z" fill="#C9A84C" opacity="0.3"/>
  <!-- GUNTHER centered -->
  <text x="300" y="48" text-anchor="middle" font-family="'Arial Black', Impact, sans-serif" font-weight="900" font-size="44" fill="#FFFFFF" letter-spacing="10">GUNTHER</text>
  <!-- Red accent bar -->
  <rect x="140" y="56" width="320" height="3" fill="#BF0A30" rx="1.5"/>
  <!-- EAGLEMAN centered -->
  <text x="300" y="96" text-anchor="middle" font-family="'Arial Black', Impact, sans-serif" font-weight="900" font-size="38" fill="url(#gld5)" letter-spacing="12">EAGLEMAN</text>
  <!-- Center star on red bar -->
  <polygon points="300,48 303,55 310,55 304.5,59 306.5,66 300,62 293.5,66 295.5,59 290,55 297,55" fill="#BF0A30"/>
</svg>
